# xmcd CD database file
#
# Track frame offsets:
#	150
#	12076
#	38251
#	60151
#	80251
#	98852
#	118952
#	138452
#	161928
#	182179
#
# Disc length: 2691 seconds
#
# Revision: 0
# Processed by: cddbd v1.5.1PL0 Copyright (c) Steve Scherf et al.
# Submitted via: CDex 1.51
#
DISCID=780a810a
DTITLE=元ちとせ - ハイヌミカゼ
DYEAR=2002
DGENRE=Pop
TTITLE0=サンゴ十五夜
TTITLE1=ワダツミの木
TTITLE2=夏の宴
TTITLE3=ひかる・かいがら
TTITLE4=心神雷火
TTITLE5=37.6
TTITLE6=初恋
TTITLE7=ハイヌミカゼ
TTITLE8=君ヲ想フ
TTITLE9=凛とする
EXTD=YEAR: 2002
EXTT0=
EXTT1=
EXTT2=
EXTT3=
EXTT4=
EXTT5=
EXTT6=
EXTT7=
EXTT8=
EXTT9=
PLAYORDER=
